<svg width="32" height="32" viewBox="0 0 32 32" fill="none" xmlns="http://www.w3.org/2000/svg">
<path d="M31 6V17.9637C31 20.7832 30.2455 22.9364 28.7364 24.4235C27.2273 25.8912 25.0879 26.625 22.3181 26.625C20.9427 26.625 19.7106 26.4222 18.6218 26.0167C17.5521 25.6111 16.6734 25.0414 15.9857 24.3076C15.2789 25.0414 14.3906 25.6111 13.3209 26.0167C12.2512 26.4222 11.0382 26.625 9.68195 26.625C6.91213 26.625 4.77268 25.8912 3.26361 24.4235C1.75454 22.9364 1 20.7832 1 17.9637V6H5.64183V17.8188C5.64183 19.4603 5.97612 20.677 6.6447 21.4688C7.31328 22.2412 8.30659 22.6275 9.62464 22.6275C12.3181 22.6275 13.6648 21.0246 13.6648 17.8188V6H18.3066V17.8188C18.3066 21.0246 19.6628 22.6275 22.3754 22.6275C25.0115 22.6275 26.3295 21.0246 26.3295 17.8188V6H31Z" fill="#292E39"/>
</svg>
