<svg width="180" height="180" viewBox="0 0 180 180" fill="none" xmlns="http://www.w3.org/2000/svg">
<path d="M157 44V97.8365C157 110.524 153.605 120.214 146.814 126.906C140.023 133.51 130.395 136.813 117.931 136.813C111.742 136.813 106.198 135.9 101.298 134.075C96.4842 132.25 92.5301 129.686 89.4355 126.384C86.255 129.686 82.2579 132.25 77.4441 134.075C72.6304 135.9 67.1719 136.813 61.0688 136.813C48.6046 136.813 38.9771 133.51 32.1862 126.906C25.3954 120.214 22 110.524 22 97.8365V44H42.8882V97.1847C42.8882 104.571 44.3926 110.046 47.4011 113.609C50.4097 117.086 54.8797 118.824 60.8109 118.824C72.9312 118.824 78.9914 111.611 78.9914 97.1847V44H99.8797V97.1847C99.8797 111.611 105.983 118.824 118.189 118.824C130.052 118.824 135.983 111.611 135.983 97.1847V44H157Z" fill="#292E39"/>
</svg>
