<svg  width="13" height="12" viewbox="0 0 13 12" fill="none" xmlns="http://www.w3.org/2000/svg"> 
    <path d="M5.89521 10.7681L5.89449 10.7674C4.21072 9.2313 2.8536 7.99202 1.9114 6.83309C0.975032 5.68133 0.5 4.66944 0.5 3.59673C0.5 1.85584 1.85199 0.5 3.575 0.5C4.55347 0.5 5.50126 0.960719 6.11836 1.68979L6.5 2.14068L6.88164 1.68979C7.49874 0.960719 8.44653 0.5 9.425 0.5C11.148 0.5 12.5 1.85584 12.5 3.59673C12.5 4.66945 12.025 5.68136 11.0885 6.83404C10.1462 7.99382 8.7892 9.23462 7.10549 10.774C7.10537 10.7741 7.10524 10.7742 7.10512 10.7743L6.50128 11.3232L5.89521 10.7681Z" 
    fill="white" stroke="#A1A6B4" /> 
</svg>